<?xml version="1.0" standalone="no"?><svg xmlns:xlink="http://www.w3.org/1999/xlink" xmlns="http://www.w3.org/2000/svg" viewBox="0 0 1000 1666.7123980353804" preserveAspectRatio="xMaxYMax slice"><g transform="scale(3.919831604034291)"><rect x="0" y="0" width="255.12" height="425.20000000000005" fill="#ffffff"/><rect x="0" y="0" width="42.52" height="42.52" fill="#ffffff"/><path d="M 0 0 A 21.26 21.26 0 0 1  21.26 21.26 L 0 0 A 21.26 21.26 0 0 0 21.26 21.26" fill="#fafcfd"/><path d="M 0 21.26 A 21.26 21.26 0 0 1  21.26 42.52 L 0 21.26 A 21.26 21.26 0 0 0 21.26 42.52" fill="#a9b0bd"/><path d="M 21.26 21.26 A 21.26 21.26 0 0 1  42.52 42.52 L 21.26 21.26 A 21.26 21.26 0 0 0 42.52 42.52" fill="#fdfefe"/><rect x="85.04" y="0" width="42.52" height="42.52" fill="#ffffff"/><path d="M 85.04 0 A 21.26 21.26 0 0 1  106.30000000000001 21.26 L 85.04 0 A 21.26 21.26 0 0 0 106.30000000000001 21.26" fill="#67748a"/><path d="M 106.3 42.52 A 21.26 21.26 0 0 1  127.56 21.26 L 106.3 42.52 A 21.26 21.26 0 0 0 127.56 21.26" fill="#d5d8de"/><rect x="170.08" y="0" width="42.52" height="42.52" fill="#ffffff"/><path d="M 170.08 21.26 A 21.26 21.26 0 0 1  191.34 0 L 170.08 21.26 A 21.26 21.26 0 0 0 191.34 0" fill="#f8fafc"/><path d="M 191.34 0 A 21.26 21.26 0 0 1  212.6 21.26 L 191.34 0 A 21.26 21.26 0 0 0 212.6 21.26" fill="#feffff"/><path d="M 170.08 21.26 A 21.26 21.26 0 0 1  191.34 42.52 L 170.08 21.26 A 21.26 21.26 0 0 0 191.34 42.52" fill="#d3d7de"/><path d="M 191.34 21.26 A 21.26 21.26 0 0 1  212.6 42.52 L 191.34 21.26 A 21.26 21.26 0 0 0 212.6 42.52" fill="#465671"/><rect x="0" y="42.52" width="42.52" height="42.52" fill="#ffffff"/><path d="M 0 63.78 A 21.26 21.26 0 0 1  21.26 85.04 L 0 63.78 A 21.26 21.26 0 0 0 21.26 85.04" fill="#d2d6dc"/><rect x="85.04" y="42.52" width="42.52" height="42.52" fill="#ffffff"/><path d="M 85.04 42.52 A 21.26 21.26 0 0 1  106.30000000000001 63.78 L 85.04 42.52 A 21.26 21.26 0 0 0 106.30000000000001 63.78" fill="#fbfcfd"/><path d="M 106.3 85.04 A 21.26 21.26 0 0 1  127.56 63.78 L 106.3 85.04 A 21.26 21.26 0 0 0 127.56 63.78" fill="#52617a"/><path d="M 127.56 42.52 A 42.52 42.52 0 0 1  170.08 85.04 L 127.56 42.52 A 42.52 42.52 0 0 0 170.08 85.04" fill="#f8fbfc"/><path d="M 212.6 42.52 A 42.52 42.52 0 0 1  255.12 85.04 L 212.6 42.52 A 42.52 42.52 0 0 0 255.12 85.04" fill="#f8fbfc"/><path d="M 0 85.04 A 42.52 42.52 0 0 1  42.52 127.56 L 0 85.04 A 42.52 42.52 0 0 0 42.52 127.56" fill="#fafcfd"/><path d="M 42.52 127.56 A 42.52 42.52 0 0 1  85.04 85.04 L 42.52 127.56 A 42.52 42.52 0 0 0 85.04 85.04" fill="#fbfcfd"/><rect x="85.04" y="85.04" width="42.52" height="42.52" fill="#ffffff"/><path d="M 106.3 85.04 A 21.26 21.26 0 0 1  127.56 106.30000000000001 L 106.3 85.04 A 21.26 21.26 0 0 0 127.56 106.30000000000001" fill="#fafcfd"/><path d="M 85.04 106.3 A 21.26 21.26 0 0 1  106.30000000000001 127.56 L 85.04 106.3 A 21.26 21.26 0 0 0 106.30000000000001 127.56" fill="#fafcfd"/><path d="M 106.3 127.56 A 21.26 21.26 0 0 1  127.56 106.3 L 106.3 127.56 A 21.26 21.26 0 0 0 127.56 106.3" fill="#e3e6fa"/><path d="M 127.56 85.04 A 42.52 42.52 0 0 1  170.08 127.56 L 127.56 85.04 A 42.52 42.52 0 0 0 170.08 127.56" fill="#7c8ce9"/><path d="M 212.6 85.04 A 42.52 42.52 0 0 1  255.12 127.56 L 212.6 85.04 A 42.52 42.52 0 0 0 255.12 127.56" fill="#f9fbfd"/><path d="M 0 170.08 A 42.52 42.52 0 0 1  42.52 127.56 L 0 170.08 A 42.52 42.52 0 0 0 42.52 127.56" fill="#c6cdf5"/><path d="M 85.04 127.56 A 42.52 42.52 0 0 1  127.56 170.08 L 85.04 127.56 A 42.52 42.52 0 0 0 127.56 170.08" fill="#92a0ed"/><path d="M 127.56 127.56 A 42.52 42.52 0 0 1  170.08 170.08 L 127.56 127.56 A 42.52 42.52 0 0 0 170.08 170.08" fill="#a4acb9"/><path d="M 0 212.60000000000002 A 42.52 42.52 0 0 1  42.52 170.08 L 0 212.60000000000002 A 42.52 42.52 0 0 0 42.52 170.08" fill="#f8fafc"/><path d="M 42.52 212.60000000000002 A 42.52 42.52 0 0 1  85.04 170.08 L 42.52 212.60000000000002 A 42.52 42.52 0 0 0 85.04 170.08" fill="#fdfefe"/><path d="M 85.04 212.60000000000002 A 42.52 42.52 0 0 1  127.56 170.08 L 85.04 212.60000000000002 A 42.52 42.52 0 0 0 127.56 170.08" fill="#6c7ee6"/><path d="M 127.56 212.60000000000002 A 42.52 42.52 0 0 1  170.08 170.08 L 127.56 212.60000000000002 A 42.52 42.52 0 0 0 170.08 170.08" fill="#fefeff"/><path d="M 170.08 170.08 A 42.52 42.52 0 0 1  212.60000000000002 212.60000000000002 L 170.08 170.08 A 42.52 42.52 0 0 0 212.60000000000002 212.60000000000002" fill="#94a1ed"/><path d="M 85.04 212.6 A 42.52 42.52 0 0 1  127.56 255.12 L 85.04 212.6 A 42.52 42.52 0 0 0 127.56 255.12" fill="#bac2f3"/><rect x="127.56" y="212.60000000000002" width="42.52" height="42.52" fill="#ffffff"/><path d="M 127.56 233.85999999999999 A 21.26 21.26 0 0 1  148.82 212.6 L 127.56 233.85999999999999 A 21.26 21.26 0 0 0 148.82 212.6" fill="#fafcfd"/><path d="M 148.82 233.85999999999999 A 21.26 21.26 0 0 1  170.07999999999998 212.6 L 148.82 233.85999999999999 A 21.26 21.26 0 0 0 170.07999999999998 212.6" fill="#43536f"/><path d="M 127.56 233.86 A 21.26 21.26 0 0 1  148.82 255.12 L 127.56 233.86 A 21.26 21.26 0 0 0 148.82 255.12" fill="#6b7ee6"/><path d="M 148.82 233.86 A 21.26 21.26 0 0 1  170.07999999999998 255.12 L 148.82 233.86 A 21.26 21.26 0 0 0 170.07999999999998 255.12" fill="#7485e8"/><path d="M 170.08 212.6 A 42.52 42.52 0 0 1  212.60000000000002 255.12 L 170.08 212.6 A 42.52 42.52 0 0 0 212.60000000000002 255.12" fill="#3a4b68"/><path d="M 212.6 255.12 A 42.52 42.52 0 0 1  255.12 212.6 L 212.6 255.12 A 42.52 42.52 0 0 0 255.12 212.6" fill="#d0d6f7"/><path d="M 0 297.64 A 42.52 42.52 0 0 1  42.52 255.12 L 0 297.64 A 42.52 42.52 0 0 0 42.52 255.12" fill="#6376e5"/><path d="M 42.52 297.64 A 42.52 42.52 0 0 1  85.04 255.12 L 42.52 297.64 A 42.52 42.52 0 0 0 85.04 255.12" fill="#7a8be9"/><path d="M 85.04 297.64 A 42.52 42.52 0 0 1  127.56 255.12 L 85.04 297.64 A 42.52 42.52 0 0 0 127.56 255.12" fill="#7d8de9"/><path d="M 127.56 255.12 A 42.52 42.52 0 0 1  170.08 297.64 L 127.56 255.12 A 42.52 42.52 0 0 0 170.08 297.64" fill="#f7fafc"/><path d="M 212.6 255.12 A 42.52 42.52 0 0 1  255.12 297.64 L 212.6 255.12 A 42.52 42.52 0 0 0 255.12 297.64" fill="#fafbfc"/><path d="M 0 297.64 A 42.52 42.52 0 0 1  42.52 340.15999999999997 L 0 297.64 A 42.52 42.52 0 0 0 42.52 340.15999999999997" fill="#485873"/><path d="M 42.52 297.64 A 42.52 42.52 0 0 1  85.04 340.15999999999997 L 42.52 297.64 A 42.52 42.52 0 0 0 85.04 340.15999999999997" fill="#fcfcfd"/><path d="M 127.56 340.15999999999997 A 42.52 42.52 0 0 1  170.08 297.64 L 127.56 340.15999999999997 A 42.52 42.52 0 0 0 170.08 297.64" fill="#d5daf8"/><path d="M 170.08 340.15999999999997 A 42.52 42.52 0 0 1  212.60000000000002 297.64 L 170.08 340.15999999999997 A 42.52 42.52 0 0 0 212.60000000000002 297.64" fill="#f8fafc"/><path d="M 0 340.16 A 42.52 42.52 0 0 1  42.52 382.68 L 0 340.16 A 42.52 42.52 0 0 0 42.52 382.68" fill="#44546f"/><path d="M 42.52 340.16 A 42.52 42.52 0 0 1  85.04 382.68 L 42.52 340.16 A 42.52 42.52 0 0 0 85.04 382.68" fill="#667389"/><path d="M 85.04 340.16 A 42.52 42.52 0 0 1  127.56 382.68 L 85.04 340.16 A 42.52 42.52 0 0 0 127.56 382.68" fill="#ffffff"/><rect x="127.56" y="340.16" width="42.52" height="42.52" fill="#ffffff"/><path d="M 148.82 340.16 A 21.26 21.26 0 0 1  170.07999999999998 361.42 L 148.82 340.16 A 21.26 21.26 0 0 0 170.07999999999998 361.42" fill="#fbfdfe"/><path d="M 170.08 340.16 A 42.52 42.52 0 0 1  212.60000000000002 382.68 L 170.08 340.16 A 42.52 42.52 0 0 0 212.60000000000002 382.68" fill="#a8b3f0"/><path d="M 42.52 425.2 A 42.52 42.52 0 0 1  85.04 382.68 L 42.52 425.2 A 42.52 42.52 0 0 0 85.04 382.68" fill="#f7fafc"/><rect x="85.04" y="382.68" width="42.52" height="42.52" fill="#ffffff"/><path d="M 85.04 403.94 A 21.26 21.26 0 0 1  106.30000000000001 382.68 L 85.04 403.94 A 21.26 21.26 0 0 0 106.30000000000001 382.68" fill="#fdfefe"/><path d="M 85.04 425.2 A 21.26 21.26 0 0 1  106.30000000000001 403.94 L 85.04 425.2 A 21.26 21.26 0 0 0 106.30000000000001 403.94" fill="#66738a"/><path d="M 127.56 425.2 A 42.52 42.52 0 0 1  170.08 382.68 L 127.56 425.2 A 42.52 42.52 0 0 0 170.08 382.68" fill="#fbfdfe"/><path d="M 212.6 425.2 A 42.52 42.52 0 0 1  255.12 382.68 L 212.6 425.2 A 42.52 42.52 0 0 0 255.12 382.68" fill="#fcfdfd"/></g></svg>